<svg width="16" height="16" viewBox="0 0 16 16" fill="none" xmlns="http://www.w3.org/2000/svg">
<g clip-path="url(#clip0_72_168)">
<path d="M11.3337 10H8.00033M4.66699 6.66667L4.82299 6.79667C5.67766 7.50867 6.10499 7.86467 6.10499 8.33334C6.10499 8.802 5.67833 9.15801 4.82299 9.87001L4.66699 10" stroke="white" stroke-linecap="round"/>
<path d="M14.6668 8C14.6668 11.1427 14.6668 12.714 13.6902 13.69C12.7148 14.6667 11.1428 14.6667 8.00016 14.6667C4.8575 14.6667 3.28616 14.6667 2.3095 13.69C1.3335 12.7147 1.3335 11.1427 1.3335 8C1.3335 4.85734 1.3335 3.286 2.3095 2.30934C3.28683 1.33334 4.8575 1.33334 8.00016 1.33334C11.1428 1.33334 12.7142 1.33334 13.6902 2.30934C14.3395 2.95867 14.5568 3.87134 14.6302 5.33334" stroke="white" stroke-linecap="round"/>
</g>
<defs>
<clipPath id="clip0_72_168">
<rect width="16" height="16" fill="white"/>
</clipPath>
</defs>
</svg>
