<svg width="13" height="16" viewBox="0 0 13 16" fill="none" xmlns="http://www.w3.org/2000/svg">
<path d="M1.75 15.5H0.75C0.551088 15.5 0.360322 15.421 0.21967 15.2803C0.0790177 15.1397 0 14.9489 0 14.75V10.25C0 10.0511 0.0790177 9.86032 0.21967 9.71967C0.360322 9.57902 0.551088 9.5 0.75 9.5H1.75C1.94891 9.5 2.13968 9.57902 2.28033 9.71967C2.42098 9.86032 2.5 10.0511 2.5 10.25V14.75C2.5 14.9489 2.42098 15.1397 2.28033 15.2803C2.13968 15.421 1.94891 15.5 1.75 15.5ZM8.75 15.5H7.75C7.55109 15.5 7.36032 15.421 7.21967 15.2803C7.07902 15.1397 7 14.9489 7 14.75V7.25C7 7.05109 7.07902 6.86032 7.21967 6.71967C7.36032 6.57902 7.55109 6.5 7.75 6.5H8.75C8.94891 6.5 9.13968 6.57902 9.28033 6.71967C9.42098 6.86032 9.5 7.05109 9.5 7.25V14.75C9.5 14.9489 9.42098 15.1397 9.28033 15.2803C9.13968 15.421 8.94891 15.5 8.75 15.5ZM12.25 15.5H11.25C11.0511 15.5 10.8603 15.421 10.7197 15.2803C10.579 15.1397 10.5 14.9489 10.5 14.75V3.75C10.5 3.55109 10.579 3.36032 10.7197 3.21967C10.8603 3.07902 11.0511 3 11.25 3H12.25C12.4489 3 12.6397 3.07902 12.7803 3.21967C12.921 3.36032 13 3.55109 13 3.75V14.75C13 14.9489 12.921 15.1397 12.7803 15.2803C12.6397 15.421 12.4489 15.5 12.25 15.5ZM5.25 15.5H4.25C4.05109 15.5 3.86032 15.421 3.71967 15.2803C3.57902 15.1397 3.5 14.9489 3.5 14.75V1.25C3.5 1.05109 3.57902 0.860322 3.71967 0.71967C3.86032 0.579018 4.05109 0.5 4.25 0.5H5.25C5.44891 0.5 5.63968 0.579018 5.78033 0.71967C5.92098 0.860322 6 1.05109 6 1.25V14.75C6 14.9489 5.92098 15.1397 5.78033 15.2803C5.63968 15.421 5.44891 15.5 5.25 15.5Z" fill="white"/>
</svg>
